<svg width="6" height="10" viewBox="0 0 6 10" fill="none" xmlns="http://www.w3.org/2000/svg">
<path d="M4.46967 9.53033C4.76256 9.82322 5.23744 9.82322 5.53033 9.53033C5.82322 9.23744 5.82322 8.76256 5.53033 8.46967L4.46967 9.53033ZM1 5L0.469671 4.46967C0.176777 4.76256 0.176777 5.23744 0.469671 5.53033L1 5ZM5.53033 1.53033C5.82322 1.23744 5.82322 0.762562 5.53033 0.469669C5.23744 0.176776 4.76256 0.176776 4.46967 0.469669L5.53033 1.53033ZM5.53033 8.46967L1.53033 4.46967L0.469671 5.53033L4.46967 9.53033L5.53033 8.46967ZM1.53033 5.53033L5.53033 1.53033L4.46967 0.469669L0.469671 4.46967L1.53033 5.53033Z" fill="#363636"/>
</svg>
