<svg width="24" height="24" viewBox="0 0 24 24" fill="none" xmlns="http://www.w3.org/2000/svg">
<path d="M16.7071 12.2929C16.3166 11.9024 15.6834 11.9024 15.2929 12.2929C14.9024 12.6834 14.9024 13.3166 15.2929 13.7071L16.7071 12.2929ZM19 16L19.7071 16.7071C19.8946 16.5196 20 16.2652 20 16C20 15.7348 19.8946 15.4804 19.7071 15.2929L19 16ZM15.2929 18.2929C14.9024 18.6834 14.9024 19.3166 15.2929 19.7071C15.6834 20.0976 16.3166 20.0976 16.7071 19.7071L15.2929 18.2929ZM15.2929 13.7071L18.2929 16.7071L19.7071 15.2929L16.7071 12.2929L15.2929 13.7071ZM18.2929 15.2929L15.2929 18.2929L16.7071 19.7071L19.7071 16.7071L18.2929 15.2929Z" fill="#363636"/>
<path d="M5 15C4.44772 15 4 15.4477 4 16C4 16.5523 4.44772 17 5 17V15ZM19 17C19.5523 17 20 16.5523 20 16C20 15.4477 19.5523 15 19 15V17ZM5 17H19V15H5V17Z" fill="#363636"/>
<path d="M7.29289 11.7071C7.68342 12.0976 8.31658 12.0976 8.70711 11.7071C9.09763 11.3166 9.09763 10.6834 8.70711 10.2929L7.29289 11.7071ZM5 8L4.29289 7.29289C3.90237 7.68342 3.90237 8.31658 4.29289 8.70711L5 8ZM8.70711 5.70711C9.09763 5.31658 9.09763 4.68342 8.70711 4.29289C8.31658 3.90237 7.68342 3.90237 7.29289 4.29289L8.70711 5.70711ZM8.70711 10.2929L5.70711 7.29289L4.29289 8.70711L7.29289 11.7071L8.70711 10.2929ZM5.70711 8.70711L8.70711 5.70711L7.29289 4.29289L4.29289 7.29289L5.70711 8.70711Z" fill="#363636"/>
<path d="M19 9C19.5523 9 20 8.55228 20 8C20 7.44772 19.5523 7 19 7V9ZM5 7C4.44772 7 4 7.44772 4 8C4 8.55229 4.44772 9 5 9L5 7ZM19 7L5 7L5 9L19 9V7Z" fill="#363636"/>
</svg>
