<svg width="6" height="10" viewBox="0 0 6 10" fill="none" xmlns="http://www.w3.org/2000/svg">
<path d="M1.53033 9.53033C1.23744 9.82322 0.762562 9.82322 0.469668 9.53033C0.176775 9.23744 0.176776 8.76256 0.469669 8.46967L1.53033 9.53033ZM5 5L5.53033 4.46967C5.82322 4.76256 5.82322 5.23744 5.53033 5.53033L5 5ZM0.46967 1.53033C0.176777 1.23744 0.176777 0.762562 0.46967 0.469669C0.762563 0.176776 1.23744 0.176776 1.53033 0.469669L0.46967 1.53033ZM0.469669 8.46967L4.46967 4.46967L5.53033 5.53033L1.53033 9.53033L0.469669 8.46967ZM4.46967 5.53033L0.46967 1.53033L1.53033 0.469669L5.53033 4.46967L4.46967 5.53033Z" fill="white"/>
</svg>
