<svg width="32" height="32" viewBox="0 0 32 32" fill="none" xmlns="http://www.w3.org/2000/svg">
<rect width="32" height="32" rx="16" transform="matrix(-1 1.74846e-07 1.74846e-07 1 32 0)" fill="#363636"/>
<path d="M17.4697 20.5303C17.7626 20.8232 18.2374 20.8232 18.5303 20.5303C18.8232 20.2374 18.8232 19.7626 18.5303 19.4697L17.4697 20.5303ZM14 16L13.4697 15.4697C13.1768 15.7626 13.1768 16.2374 13.4697 16.5303L14 16ZM18.5303 12.5303C18.8232 12.2374 18.8232 11.7626 18.5303 11.4697C18.2374 11.1768 17.7626 11.1768 17.4697 11.4697L18.5303 12.5303ZM18.5303 19.4697L14.5303 15.4697L13.4697 16.5303L17.4697 20.5303L18.5303 19.4697ZM14.5303 16.5303L18.5303 12.5303L17.4697 11.4697L13.4697 15.4697L14.5303 16.5303Z" fill="white"/>
</svg>
