<svg width="24" height="24" viewBox="0 0 24 24" fill="none" xmlns="http://www.w3.org/2000/svg">
<path d="M10.5303 16.5303C10.2374 16.8232 9.76256 16.8232 9.46967 16.5303C9.17678 16.2374 9.17678 15.7626 9.46967 15.4697L10.5303 16.5303ZM14 12L14.5303 11.4697C14.8232 11.7626 14.8232 12.2374 14.5303 12.5303L14 12ZM9.46967 8.53033C9.17678 8.23744 9.17678 7.76256 9.46967 7.46967C9.76256 7.17678 10.2374 7.17678 10.5303 7.46967L9.46967 8.53033ZM9.46967 15.4697L13.4697 11.4697L14.5303 12.5303L10.5303 16.5303L9.46967 15.4697ZM13.4697 12.5303L9.46967 8.53033L10.5303 7.46967L14.5303 11.4697L13.4697 12.5303Z" fill="white"/>
</svg>
