<svg width="48" height="48" viewBox="0 0 48 48" fill="none" xmlns="http://www.w3.org/2000/svg">
<circle cx="24" cy="24" r="24" fill="#F1F1F1"/>
<path d="M26 27C25.4477 27 25 27.4477 25 28C25 28.5523 25.4477 29 26 29V27ZM31 28H32C32 27.4477 31.5523 27 31 27V28ZM30 33C30 33.5523 30.4477 34 31 34C31.5523 34 32 33.5523 32 33H30ZM26 29H31V27H26V29ZM30 28V33H32V28H30Z" fill="#363636"/>
<path d="M16.583 26.9968C17.1437 28.3846 18.0824 29.5872 19.2926 30.468C20.5027 31.3488 21.9356 31.8725 23.4285 31.9795C24.9214 32.0865 26.4144 31.7726 27.7377 31.0734C29.0611 30.3742 30.1618 29.3177 30.9147 28.0241" stroke="#363636" stroke-width="2" stroke-linecap="round" stroke-linejoin="round"/>
<path d="M22 21C22.5523 21 23 20.5523 23 20C23 19.4477 22.5523 19 22 19V21ZM17 20H16C16 20.5523 16.4477 21 17 21V20ZM18 15C18 14.4477 17.5523 14 17 14C16.4477 14 16 14.4477 16 15H18ZM22 19H17V21H22V19ZM18 20V15H16V20H18Z" fill="#363636"/>
<path d="M31.4176 21.0031C30.8569 19.6154 29.9182 18.4128 28.7081 17.532C27.498 16.6512 26.065 16.1275 24.5721 16.0205C23.0792 15.9135 21.5862 16.2274 20.2629 16.9266C18.9395 17.6258 17.8388 18.6823 17.0859 19.9758" stroke="#363636" stroke-width="2" stroke-linecap="round" stroke-linejoin="round"/>
</svg>
