<svg width="24" height="24" viewBox="0 0 24 24" fill="none" xmlns="http://www.w3.org/2000/svg">
<path d="M1.98755 6.83905C2.71411 5.32499 3.74067 4.0453 5.03442 2.98124C6.78755 1.5328 8.79849 0.660923 11.0532 0.393736C13.7016 0.0796731 16.1907 0.581236 18.4922 1.95936C19.0641 2.30155 19.5985 2.69061 20.1094 3.11249C20.236 3.21561 20.2219 3.27655 20.1141 3.37967C19.0688 4.4203 18.0235 5.46092 16.9876 6.51092C16.8657 6.6328 16.8001 6.62342 16.6688 6.52499C13.6313 4.18592 9.20161 4.81874 6.93755 7.91249C6.53911 8.45624 6.21568 9.04217 5.99068 9.67967C5.97193 9.73592 5.93443 9.78749 5.9063 9.84374C5.30161 9.38436 4.69224 8.92499 4.09224 8.46092C3.38911 7.92186 2.68599 7.3828 1.98755 6.83905Z" fill="#E94335"/>
<path d="M5.90629 14.2407C6.10785 14.686 6.2766 15.1501 6.52973 15.5673C7.59379 17.311 9.11254 18.4313 11.1141 18.8298C12.9188 19.1907 14.6532 18.947 16.2704 18.0423C16.3266 18.0142 16.3829 17.986 16.4344 17.9579C16.4625 17.986 16.486 18.0188 16.5141 18.0423C17.7235 18.9798 18.9375 19.9173 20.1469 20.8548C19.5657 21.4313 18.9047 21.8954 18.2016 22.2985C16.1625 23.461 13.9547 23.9298 11.6297 23.7517C8.73285 23.5267 6.23441 22.3829 4.17191 20.3204C3.26722 19.4157 2.52191 18.3938 1.98285 17.2267C2.48441 16.8423 2.98597 16.4626 3.48754 16.0782C4.29379 15.4642 5.10004 14.8548 5.90629 14.2407Z" fill="#34A853"/>
<path d="M20.1516 20.8547C18.9422 19.9172 17.7282 18.9797 16.5188 18.0422C16.4907 18.0187 16.4626 17.9859 16.4391 17.9578C16.8563 17.6344 17.2829 17.3203 17.6251 16.9078C18.1969 16.2234 18.5766 15.45 18.7735 14.5828C18.7969 14.475 18.7782 14.4375 18.6704 14.4422C18.6141 14.4469 18.5626 14.4422 18.5063 14.4422C16.5938 14.4422 14.6766 14.4375 12.7641 14.4469C12.5532 14.4469 12.5063 14.3906 12.511 14.1891C12.5204 12.8297 12.5204 11.4703 12.511 10.1109C12.511 9.9375 12.5579 9.89062 12.7313 9.89062C16.2376 9.89531 19.7438 9.89531 23.2547 9.89062C23.4048 9.89062 23.4657 9.92812 23.5032 10.0875C23.7891 11.3766 23.7704 12.6703 23.5969 13.9734C23.4563 15.0141 23.2032 16.0219 22.8141 16.9969C22.2376 18.4359 21.3891 19.6922 20.2735 20.7703C20.2313 20.8031 20.1891 20.8266 20.1516 20.8547Z" fill="#4285F3"/>
<path d="M5.90627 14.2406C5.10002 14.8547 4.29377 15.4641 3.48752 16.0781C2.98596 16.4578 2.4844 16.8422 1.98284 17.2266C1.59377 16.5047 1.34065 15.7406 1.1344 14.9531C0.74065 13.4297 0.679712 11.8828 0.895337 10.3312C1.06409 9.1125 1.41565 7.94063 1.98284 6.84375C2.68596 7.38281 3.3844 7.92656 4.08752 8.46563C4.69221 8.92969 5.2969 9.38906 5.90159 9.84844C5.79846 10.35 5.65315 10.8422 5.60627 11.3578C5.5219 12.2953 5.61096 13.2094 5.87815 14.1094C5.8969 14.1469 5.90159 14.1938 5.90627 14.2406Z" fill="#FABB06"/>
</svg>
