<svg width="16" height="16" viewBox="0 0 16 16" fill="none" xmlns="http://www.w3.org/2000/svg">
<path d="M7 12.6667C7 13.219 7.44772 13.6667 8 13.6667C8.55228 13.6667 9 13.219 9 12.6667H7ZM9 3.33337C9 2.78109 8.55228 2.33337 8 2.33337C7.44772 2.33337 7 2.78109 7 3.33337H9ZM9 12.6667V3.33337H7V12.6667H9Z" fill="white"/>
<path d="M3.33341 7.00061C2.78113 7.00061 2.33341 7.44833 2.33341 8.00061C2.33341 8.55289 2.78113 9.00061 3.33341 9.00061L3.33341 7.00061ZM12.6667 9.00061C13.219 9.00061 13.6667 8.5529 13.6667 8.00061C13.6667 7.44833 13.219 7.00061 12.6667 7.00061L12.6667 9.00061ZM3.33341 9.00061L12.6667 9.00061L12.6667 7.00061L3.33341 7.00061L3.33341 9.00061Z" fill="white"/>
</svg>
