<svg width="164" height="164" viewBox="0 0 164 164" fill="none" xmlns="http://www.w3.org/2000/svg">
<g filter="url(#filter0_b_110_1856)">
<path d="M82 0C82 0 88.4055 40.8596 105.773 58.2271C123.14 75.5945 164 82 164 82C164 82 123.14 88.4055 105.773 105.773C88.4055 123.14 82 164 82 164C82 164 75.5945 123.14 58.2271 105.773C40.8596 88.4055 0 82 0 82C0 82 40.8596 75.5945 58.2271 58.2271C75.5945 40.8596 82 0 82 0Z" fill="url(#paint0_linear_110_1856)" fill-opacity="0.04"/>
<path d="M161.135 82C160.086 82.1981 158.77 82.458 157.24 82.7831C153.128 83.6572 147.464 85.004 141.254 86.8954C128.858 90.6706 114.197 96.6422 105.419 105.419C96.6422 114.197 90.6706 128.858 86.8954 141.254C85.004 147.464 83.6572 153.128 82.7831 157.24C82.458 158.77 82.1981 160.086 82 161.135C81.8019 160.086 81.542 158.77 81.2169 157.24C80.3428 153.128 78.996 147.464 77.1046 141.254C73.3294 128.858 67.3578 114.197 58.5806 105.419C49.8034 96.6422 35.142 90.6706 22.7464 86.8954C16.5364 85.004 10.8718 83.6572 6.75964 82.7831C5.22975 82.458 3.91436 82.1981 2.86527 82C3.91436 81.8019 5.22975 81.542 6.75964 81.2169C10.8718 80.3428 16.5364 78.996 22.7464 77.1046C35.142 73.3294 49.8034 67.3578 58.5806 58.5806C67.3578 49.8034 73.3294 35.142 77.1046 22.7464C78.996 16.5364 80.3428 10.8718 81.2169 6.75964C81.542 5.22975 81.8019 3.91436 82 2.86527C82.1981 3.91436 82.458 5.22975 82.7831 6.75964C83.6572 10.8718 85.004 16.5364 86.8954 22.7464C90.6706 35.142 96.6422 49.8034 105.419 58.5806C114.197 67.3578 128.858 73.3294 141.254 77.1046C147.464 78.996 153.128 80.3428 157.24 81.2169C158.77 81.542 160.086 81.8019 161.135 82Z" stroke="url(#paint1_linear_110_1856)"/>
</g>
<defs>
<filter id="filter0_b_110_1856" x="-105" y="-105" width="374" height="374" filterUnits="userSpaceOnUse" color-interpolation-filters="sRGB">
<feFlood flood-opacity="0" result="BackgroundImageFix"/>
<feGaussianBlur in="BackgroundImage" stdDeviation="52.5"/>
<feComposite in2="SourceAlpha" operator="in" result="effect1_backgroundBlur_110_1856"/>
<feBlend mode="normal" in="SourceGraphic" in2="effect1_backgroundBlur_110_1856" result="shape"/>
</filter>
<linearGradient id="paint0_linear_110_1856" x1="36.4444" y1="52.3889" x2="129.833" y2="144.639" gradientUnits="userSpaceOnUse">
<stop stop-color="white"/>
<stop offset="1" stop-color="white" stop-opacity="0"/>
</linearGradient>
<linearGradient id="paint1_linear_110_1856" x1="175.389" y1="-19.3611" x2="27.3333" y2="134.389" gradientUnits="userSpaceOnUse">
<stop stop-color="#A1DC25" stop-opacity="0.44"/>
<stop offset="1" stop-color="#A1DC25" stop-opacity="0.28"/>
</linearGradient>
</defs>
</svg>
