<svg width="32" height="32" viewBox="0 0 32 32" fill="none" xmlns="http://www.w3.org/2000/svg">
<path d="M22.0404 16.6263C21.6498 16.2357 21.0167 16.2357 20.6261 16.6263C20.2356 17.0168 20.2356 17.65 20.6261 18.0405L22.0404 16.6263ZM25.3333 21.3334L26.0404 22.0405C26.4309 21.65 26.4309 21.0168 26.0404 20.6263L25.3333 21.3334ZM20.6261 24.6263C20.2356 25.0168 20.2356 25.65 20.6261 26.0405C21.0167 26.431 21.6498 26.431 22.0404 26.0405L20.6261 24.6263ZM20.6261 18.0405L24.6261 22.0405L26.0404 20.6263L22.0404 16.6263L20.6261 18.0405ZM24.6261 20.6263L20.6261 24.6263L22.0404 26.0405L26.0404 22.0405L24.6261 20.6263Z" fill="#363636"/>
<path d="M6.66675 20.3334C6.11446 20.3334 5.66675 20.7811 5.66675 21.3334C5.66675 21.8857 6.11446 22.3334 6.66675 22.3334V20.3334ZM25.3334 22.3334C25.8857 22.3334 26.3334 21.8857 26.3334 21.3334C26.3334 20.7811 25.8857 20.3334 25.3334 20.3334V22.3334ZM6.66675 22.3334H25.3334V20.3334H6.66675V22.3334Z" fill="#363636"/>
<path d="M9.95964 15.3737C10.3502 15.7643 10.9833 15.7643 11.3739 15.3737C11.7644 14.9832 11.7644 14.35 11.3739 13.9595L9.95964 15.3737ZM6.66675 10.6666L5.95964 9.95952C5.7721 10.1471 5.66675 10.4014 5.66675 10.6666C5.66675 10.9318 5.7721 11.1862 5.95964 11.3737L6.66675 10.6666ZM11.3739 7.37373C11.7644 6.98321 11.7644 6.35004 11.3739 5.95952C10.9833 5.56899 10.3502 5.56899 9.95964 5.95952L11.3739 7.37373ZM11.3739 13.9595L7.37385 9.95952L5.95964 11.3737L9.95964 15.3737L11.3739 13.9595ZM7.37385 11.3737L11.3739 7.37373L9.95964 5.95952L5.95964 9.95952L7.37385 11.3737Z" fill="#363636"/>
<path d="M25.3334 11.6666C25.8857 11.6666 26.3334 11.2189 26.3334 10.6666C26.3334 10.1143 25.8857 9.66663 25.3334 9.66663V11.6666ZM6.66675 9.66663C6.11446 9.66663 5.66675 10.1143 5.66675 10.6666C5.66675 11.2189 6.11446 11.6666 6.66675 11.6666L6.66675 9.66663ZM25.3334 9.66663L6.66675 9.66663L6.66675 11.6666L25.3334 11.6666V9.66663Z" fill="#363636"/>
</svg>
