<svg width="78" height="88" viewBox="0 0 78 88" fill="none" xmlns="http://www.w3.org/2000/svg">
<path d="M53.503 16.4357L31.137 10.4407C23.0243 8.26611 17.028 11.7519 14.847 19.8941L7.46043 47.4709C5.24374 55.7467 8.72304 61.6579 16.8357 63.8324L39.2017 69.8275C47.4452 72.0371 53.2795 68.6223 55.4961 60.3466L62.8827 32.7698C65.0637 24.6275 61.7464 18.6453 53.503 16.4357Z" fill="url(#paint0_linear_224_2207)"/>
<g opacity="0.5" filter="url(#filter0_f_224_2207)">
<path d="M28.8278 39.3648C24.2101 38.8734 20.707 34.9777 20.707 30.3339C20.707 25.6902 24.2102 21.7945 28.8278 21.3031L35.4592 20.5974C41.2443 19.9818 46.2869 24.5162 46.2869 30.3339C46.2869 36.1517 41.2442 40.6861 35.4592 40.0705L28.8278 39.3648Z" fill="#84A500"/>
</g>
<g filter="url(#filter1_b_224_2207)">
<path d="M70.9731 44.5764C70.9731 33.3215 64.1525 26.6923 52.6103 26.6923H22.3658C10.8206 26.6923 4 33.3215 4 44.5764V69.0897C4 80.3446 10.8206 87 22.3658 87H52.6222C64.1645 87 70.985 80.3446 70.985 69.0897C70.985 57.8348 70.9731 45.8198 70.9731 44.5764Z" fill="#BCD459" fill-opacity="0.35"/>
<path d="M71.4731 44.5764C71.4731 38.847 69.7348 34.2345 66.4688 31.0554C63.2046 27.8781 58.4758 26.1923 52.6103 26.1923H22.3658C16.4988 26.1923 11.7693 27.8781 8.5047 31.0554C5.23836 34.2345 3.5 38.847 3.5 44.5764V69.0897C3.5 74.8191 5.23832 79.4378 8.50432 82.6234C11.7687 85.8073 16.4983 87.5 22.3658 87.5H52.6222C58.4882 87.5 63.2171 85.8072 66.4811 82.6233C69.7467 79.4378 71.485 74.8191 71.485 69.0897C71.485 63.4621 71.482 57.6445 71.4791 53.0784C71.4776 50.7896 71.4761 48.8153 71.475 47.3371C71.4739 45.8662 71.4731 44.8864 71.4731 44.5764Z" stroke="url(#paint1_linear_224_2207)" stroke-linecap="round" stroke-linejoin="round"/>
</g>
<g filter="url(#filter2_b_224_2207)">
<path d="M46.8131 58.3497C47.7171 62.4472 51.3221 65.33 55.4379 65.255H73.8981C75.6106 65.255 76.9997 63.8417 76.9997 62.0948V51.1896C76.996 49.4464 75.6106 48.0294 73.8981 48.0256H55.1072C50.4254 48.0406 46.644 51.9131 46.6514 56.6853C46.6514 57.2439 46.7065 57.8024 46.8131 58.3497Z" fill="#BCD459"/>
<path d="M46.3223 58.4453L46.3221 58.4453L46.3248 58.4575C47.2784 62.7797 51.0843 65.8322 55.4424 65.755H73.8981C75.8953 65.755 77.4997 64.1092 77.4997 62.0948L77.4997 51.1896L77.4997 51.1885C77.4954 49.1798 75.8967 47.53 73.8992 47.5256H73.8981L55.1072 47.5256L55.1055 47.5256C50.1392 47.5415 46.1438 51.6469 46.1514 56.6857C46.1514 57.2769 46.2097 57.8673 46.3223 58.4453Z" stroke="url(#paint2_linear_224_2207)" stroke-linecap="round" stroke-linejoin="round"/>
</g>
<g filter="url(#filter3_bd_224_2207)">
<ellipse cx="55.2643" cy="56.6409" rx="3.69101" ry="3.69231" fill="url(#paint3_linear_224_2207)"/>
<path d="M58.8553 56.6409C58.8553 58.6249 57.2475 60.2332 55.2643 60.2332C53.281 60.2332 51.6732 58.6249 51.6732 56.6409C51.6732 54.6569 53.281 53.0486 55.2643 53.0486C57.2475 53.0486 58.8553 54.6569 58.8553 56.6409Z" stroke="url(#paint4_linear_224_2207)" stroke-opacity="0.5" stroke-width="0.2"/>
</g>
<g filter="url(#filter4_bd_224_2207)">
<path d="M38.7879 44.6813H19.8981C18.484 44.6755 17.3407 43.5517 17.3467 42.1725C17.3527 40.799 18.4929 39.6869 19.8981 39.6811H38.7998C40.2139 39.6752 41.369 40.7903 41.375 42.1696C41.3809 43.5517 40.2377 44.6755 38.8236 44.6813H38.7998H38.7879Z" fill="url(#paint5_linear_224_2207)"/>
<path d="M38.7998 39.7811L38.8002 39.7811C40.1616 39.7755 41.2693 40.8484 41.275 42.17C41.2807 43.4946 40.1845 44.5756 38.8234 44.5813H38.7998H38.7879H19.8983C18.5371 44.5756 17.441 43.4945 17.4467 42.1729C17.4524 40.8566 18.5458 39.7868 19.8983 39.7811L38.7998 39.7811Z" stroke="url(#paint6_linear_224_2207)" stroke-opacity="0.5" stroke-width="0.2"/>
</g>
<defs>
<filter id="filter0_f_224_2207" x="0.707031" y="0.541382" width="65.5801" height="59.5852" filterUnits="userSpaceOnUse" color-interpolation-filters="sRGB">
<feFlood flood-opacity="0" result="BackgroundImageFix"/>
<feBlend mode="normal" in="SourceGraphic" in2="BackgroundImageFix" result="shape"/>
<feGaussianBlur stdDeviation="10" result="effect1_foregroundBlur_224_2207"/>
</filter>
<filter id="filter1_b_224_2207" x="-21" y="1.69226" width="116.985" height="110.308" filterUnits="userSpaceOnUse" color-interpolation-filters="sRGB">
<feFlood flood-opacity="0" result="BackgroundImageFix"/>
<feGaussianBlur in="BackgroundImage" stdDeviation="12"/>
<feComposite in2="SourceAlpha" operator="in" result="effect1_backgroundBlur_224_2207"/>
<feBlend mode="normal" in="SourceGraphic" in2="effect1_backgroundBlur_224_2207" result="shape"/>
</filter>
<filter id="filter2_b_224_2207" x="21.6514" y="23.0256" width="80.3486" height="67.2308" filterUnits="userSpaceOnUse" color-interpolation-filters="sRGB">
<feFlood flood-opacity="0" result="BackgroundImageFix"/>
<feGaussianBlur in="BackgroundImage" stdDeviation="12"/>
<feComposite in2="SourceAlpha" operator="in" result="effect1_backgroundBlur_224_2207"/>
<feBlend mode="normal" in="SourceGraphic" in2="effect1_backgroundBlur_224_2207" result="shape"/>
</filter>
<filter id="filter3_bd_224_2207" x="36.5732" y="37.9486" width="37.3818" height="37.3846" filterUnits="userSpaceOnUse" color-interpolation-filters="sRGB">
<feFlood flood-opacity="0" result="BackgroundImageFix"/>
<feGaussianBlur in="BackgroundImage" stdDeviation="7.5"/>
<feComposite in2="SourceAlpha" operator="in" result="effect1_backgroundBlur_224_2207"/>
<feColorMatrix in="SourceAlpha" type="matrix" values="0 0 0 0 0 0 0 0 0 0 0 0 0 0 0 0 0 0 127 0" result="hardAlpha"/>
<feOffset dx="5" dy="5"/>
<feGaussianBlur stdDeviation="5"/>
<feColorMatrix type="matrix" values="0 0 0 0 0.478431 0 0 0 0 0.596078 0 0 0 0 0.00392157 0 0 0 0.5 0"/>
<feBlend mode="normal" in2="effect1_backgroundBlur_224_2207" result="effect2_dropShadow_224_2207"/>
<feBlend mode="normal" in="SourceGraphic" in2="effect2_dropShadow_224_2207" result="shape"/>
</filter>
<filter id="filter4_bd_224_2207" x="2.34668" y="24.681" width="54.0283" height="35.0002" filterUnits="userSpaceOnUse" color-interpolation-filters="sRGB">
<feFlood flood-opacity="0" result="BackgroundImageFix"/>
<feGaussianBlur in="BackgroundImage" stdDeviation="7.5"/>
<feComposite in2="SourceAlpha" operator="in" result="effect1_backgroundBlur_224_2207"/>
<feColorMatrix in="SourceAlpha" type="matrix" values="0 0 0 0 0 0 0 0 0 0 0 0 0 0 0 0 0 0 127 0" result="hardAlpha"/>
<feOffset dx="5" dy="5"/>
<feGaussianBlur stdDeviation="5"/>
<feColorMatrix type="matrix" values="0 0 0 0 0.478431 0 0 0 0 0.596078 0 0 0 0 0.00392157 0 0 0 0.5 0"/>
<feBlend mode="normal" in2="effect1_backgroundBlur_224_2207" result="effect2_dropShadow_224_2207"/>
<feBlend mode="normal" in="SourceGraphic" in2="effect2_dropShadow_224_2207" result="shape"/>
</filter>
<linearGradient id="paint0_linear_224_2207" x1="42.3186" y1="13.4378" x2="28.008" y2="66.8271" gradientUnits="userSpaceOnUse">
<stop stop-color="#BCD459"/>
<stop offset="1" stop-color="#84A500"/>
</linearGradient>
<linearGradient id="paint1_linear_224_2207" x1="14.6629" y1="33.7182" x2="63.5981" y2="89.0865" gradientUnits="userSpaceOnUse">
<stop stop-color="white" stop-opacity="0.25"/>
<stop offset="1" stop-color="white" stop-opacity="0"/>
</linearGradient>
<linearGradient id="paint2_linear_224_2207" x1="51.4823" y1="50.033" x2="63.4645" y2="71.5312" gradientUnits="userSpaceOnUse">
<stop stop-color="white" stop-opacity="0.25"/>
<stop offset="1" stop-color="white" stop-opacity="0"/>
</linearGradient>
<linearGradient id="paint3_linear_224_2207" x1="58.4319" y1="54.2821" x2="50.209" y2="54.5501" gradientUnits="userSpaceOnUse">
<stop stop-color="white"/>
<stop offset="1" stop-color="white" stop-opacity="0.2"/>
</linearGradient>
<linearGradient id="paint4_linear_224_2207" x1="52.3684" y1="55.4258" x2="58.6368" y2="55.4604" gradientUnits="userSpaceOnUse">
<stop stop-color="white"/>
<stop offset="1" stop-color="white" stop-opacity="0"/>
</linearGradient>
<linearGradient id="paint5_linear_224_2207" x1="39.6714" y1="40.584" x2="13.5197" y2="44.6814" gradientUnits="userSpaceOnUse">
<stop stop-color="white"/>
<stop offset="1" stop-color="white" stop-opacity="0.2"/>
</linearGradient>
<linearGradient id="paint6_linear_224_2207" x1="19.9351" y1="41.3584" x2="40.3247" y2="41.8993" gradientUnits="userSpaceOnUse">
<stop stop-color="white"/>
<stop offset="1" stop-color="white" stop-opacity="0"/>
</linearGradient>
</defs>
</svg>
