<svg width="77" height="81" viewBox="0 0 77 81" fill="none" xmlns="http://www.w3.org/2000/svg">
<path d="M46.0958 19.5919L23.2502 19.5919C14.9635 19.5919 10.1512 24.5097 10.1728 32.9363L10.2458 61.4761C10.2677 70.0408 15.1048 74.8481 23.3915 74.8481H46.2371C54.6574 74.8481 59.3336 70.0408 59.3117 61.4761L59.2387 32.9363C59.2171 24.5097 54.516 19.5919 46.0958 19.5919Z" fill="url(#paint0_linear_224_2182)"/>
<g opacity="0.5" filter="url(#filter0_f_224_2182)">
<path d="M28.598 46.4629C23.9794 45.9646 20.4785 42.0657 20.4785 37.4202C20.4785 32.7747 23.9794 28.8758 28.5981 28.3775L34.882 27.6995C40.6633 27.0757 45.708 31.6054 45.708 37.4202C45.708 43.2351 40.6633 47.7648 34.882 47.141L28.598 46.4629Z" fill="#84A500"/>
</g>
<ellipse cx="50.3032" cy="8.97959" rx="8.89888" ry="8.97959" fill="#C4C4C4"/>
<ellipse cx="50.3032" cy="8.97959" rx="8.89888" ry="8.97959" fill="url(#paint1_linear_224_2182)"/>
<path d="M49.9982 14.5919V3.36743H50.6945V14.5919H49.9982ZM52.0064 6.95839C51.9668 6.57547 51.7998 6.27732 51.5054 6.06394C51.2139 5.85056 50.8346 5.74387 50.3676 5.74387C50.0392 5.74387 49.7576 5.79502 49.5227 5.89733C49.2878 5.99963 49.108 6.13848 48.9835 6.31386C48.8589 6.48924 48.7953 6.68947 48.7924 6.91455C48.7924 7.10162 48.8335 7.26385 48.9155 7.40123C49.0005 7.53862 49.1151 7.65554 49.2594 7.752C49.4038 7.84554 49.5637 7.92446 49.7392 7.98876C49.9147 8.05307 50.0916 8.10715 50.2699 8.15099L51.0851 8.36145C51.4134 8.44037 51.729 8.54707 52.0319 8.68153C52.3375 8.81599 52.6107 8.98552 52.8513 9.19014C53.0947 9.39475 53.2871 9.64175 53.4287 9.93113C53.5702 10.2205 53.641 10.5596 53.641 10.9483C53.641 11.4745 53.5108 11.9378 53.2504 12.3383C52.99 12.7358 52.6135 13.0471 52.121 13.2722C51.6313 13.4943 51.0384 13.6054 50.3421 13.6054C49.6656 13.6054 49.0783 13.4972 48.5801 13.2809C48.0848 13.0646 47.697 12.7489 47.4168 12.3339C47.1395 11.9188 46.9894 11.4131 46.9668 10.8168H48.5165C48.5391 11.1296 48.6325 11.3897 48.7967 11.5973C48.9608 11.8048 49.1745 11.9597 49.4378 12.062C49.7038 12.1643 50.001 12.2155 50.3293 12.2155C50.6718 12.2155 50.9719 12.1629 51.2294 12.0576C51.4898 11.9495 51.6936 11.8004 51.8408 11.6104C51.988 11.4175 52.063 11.1924 52.0658 10.9352C52.063 10.7013 51.9965 10.5084 51.8663 10.3564C51.7361 10.2015 51.5535 10.0729 51.3186 9.97059C51.0865 9.86536 50.8148 9.77182 50.5034 9.68998L49.5142 9.4269C48.7981 9.23691 48.232 8.94898 47.8159 8.56314C47.4027 8.17438 47.1961 7.65846 47.1961 7.01539C47.1961 6.48632 47.3348 6.02302 47.6121 5.62548C47.8923 5.22795 48.273 4.91957 48.7542 4.70034C49.2354 4.47819 49.7802 4.36711 50.3888 4.36711C51.0058 4.36711 51.5464 4.47819 52.0106 4.70034C52.4776 4.91957 52.8442 5.22503 53.1102 5.61671C53.3763 6.00548 53.5136 6.4527 53.5221 6.95839H52.0064Z" fill="white"/>
<ellipse cx="33.1235" cy="20.4082" rx="8.89888" ry="8.97959" fill="#C4C4C4"/>
<ellipse cx="33.1235" cy="20.4082" rx="8.89888" ry="8.97959" fill="url(#paint2_linear_224_2182)"/>
<path d="M32.8185 26.0204V14.7959H33.5148V26.0204H32.8185ZM34.8267 18.3869C34.7871 18.0039 34.6201 17.7058 34.3257 17.4924C34.0342 17.279 33.6549 17.1723 33.1879 17.1723C32.8595 17.1723 32.5779 17.2235 32.343 17.3258C32.1081 17.4281 31.9283 17.5669 31.8038 17.7423C31.6793 17.9177 31.6156 18.1179 31.6127 18.343C31.6127 18.5301 31.6538 18.6923 31.7359 18.8297C31.8208 18.9671 31.9354 19.084 32.0798 19.1805C32.2241 19.274 32.384 19.3529 32.5595 19.4172C32.735 19.4815 32.9119 19.5356 33.0902 19.5795L33.9054 19.7899C34.2337 19.8688 34.5493 19.9755 34.8522 20.11C35.1579 20.2445 35.431 20.414 35.6716 20.6186C35.915 20.8232 36.1075 21.0702 36.249 21.3596C36.3905 21.649 36.4613 21.988 36.4613 22.3768C36.4613 22.903 36.3311 23.3663 36.0707 23.7667C35.8103 24.1643 35.4338 24.4756 34.9413 24.7006C34.4517 24.9228 33.8587 25.0339 33.1624 25.0339C32.4859 25.0339 31.8986 24.9257 31.4005 24.7094C30.9051 24.4931 30.5174 24.1774 30.2371 23.7623C29.9598 23.3473 29.8098 22.8416 29.7871 22.2453H31.3368C31.3594 22.558 31.4528 22.8182 31.617 23.0257C31.7811 23.2333 31.9948 23.3882 32.2581 23.4905C32.5241 23.5928 32.8213 23.644 33.1497 23.644C33.4921 23.644 33.7922 23.5913 34.0497 23.4861C34.3101 23.378 34.5139 23.2289 34.6611 23.0389C34.8083 22.846 34.8833 22.6209 34.8861 22.3637C34.8833 22.1298 34.8168 21.9369 34.6866 21.7849C34.5564 21.63 34.3738 21.5014 34.1389 21.3991C33.9068 21.2938 33.6351 21.2003 33.3237 21.1184L32.3345 20.8554C31.6184 20.6654 31.0523 20.3775 30.6362 19.9916C30.223 19.6028 30.0164 19.0869 30.0164 18.4439C30.0164 17.9148 30.1551 17.4515 30.4324 17.054C30.7127 16.6564 31.0934 16.348 31.5745 16.1288C32.0557 15.9067 32.6006 15.7956 33.2091 15.7956C33.8261 15.7956 34.3667 15.9067 34.8309 16.1288C35.298 16.348 35.6645 16.6535 35.9306 17.0452C36.1966 17.4339 36.3339 17.8812 36.3424 18.3869H34.8267Z" fill="white"/>
<g filter="url(#filter1_b_224_2182)">
<path d="M70.0557 37.5764C70.0557 26.3215 63.3285 19.6923 51.9444 19.6923H22.1142C10.7271 19.6923 4 26.3215 4 37.5764V62.0897C4 73.3446 10.7271 80 22.1142 80H51.9561C63.3403 80 70.0674 73.3446 70.0674 62.0897C70.0674 50.8348 70.0557 38.8198 70.0557 37.5764Z" fill="#BCD459" fill-opacity="0.35"/>
<path d="M70.5557 37.5764C70.5557 31.849 68.8419 27.2373 65.6203 24.0579C62.3996 20.8793 57.7327 19.1923 51.9444 19.1923H22.1142C16.3244 19.1923 11.6569 20.8792 8.43576 24.0578C5.21375 27.2373 3.5 31.849 3.5 37.5764V62.0897C3.5 67.8171 5.21371 72.435 8.43538 75.6209C11.6563 78.8061 16.3239 80.5 22.1142 80.5H51.9561C57.745 80.5 62.4119 78.8061 65.6324 75.6209C68.8537 72.435 70.5674 67.8171 70.5674 62.0897C70.5674 56.4621 70.5645 50.6445 70.5615 46.0784C70.5601 43.7834 70.5586 41.8047 70.5575 40.3251C70.5564 38.8609 70.5557 37.8855 70.5557 37.5764Z" stroke="url(#paint3_linear_224_2182)" stroke-linecap="round" stroke-linejoin="round"/>
</g>
<g filter="url(#filter2_b_224_2182)">
<path d="M46.2269 51.3497C47.1185 55.4472 50.6741 58.33 54.7335 58.255H72.9409C74.6299 58.255 76 56.8417 76 55.0948V44.1896C75.9963 42.4464 74.6299 41.0294 72.9409 41.0256H54.4073C49.7897 41.0406 46.0601 44.9131 46.0674 49.6853C46.0674 50.2439 46.1218 50.8024 46.2269 51.3497Z" fill="#BCD459"/>
<path d="M45.7358 51.444L45.7357 51.4441L45.7383 51.4561C46.678 55.7743 50.4312 58.8322 54.7381 58.755H72.9409C74.9211 58.755 76.5 57.1026 76.5 55.0948L76.5 44.1896L76.5 44.1886C76.4958 42.1864 74.9224 40.53 72.942 40.5256H72.9409L54.4073 40.5256L54.4057 40.5256C49.4971 40.5416 45.5599 44.6534 45.5674 49.6857C45.5674 50.2764 45.6249 50.8665 45.7358 51.444Z" stroke="url(#paint4_linear_224_2182)" stroke-linecap="round" stroke-linejoin="round"/>
</g>
<g filter="url(#filter3_bd_224_2182)">
<ellipse cx="54.5613" cy="49.641" rx="3.64045" ry="3.69231" fill="url(#paint5_linear_224_2182)"/>
<path d="M58.1018 49.641C58.1018 51.6264 56.5154 53.2334 54.5613 53.2334C52.6073 53.2334 51.0209 51.6264 51.0209 49.641C51.0209 47.6557 52.6073 46.0487 54.5613 46.0487C56.5154 46.0487 58.1018 47.6557 58.1018 49.641Z" stroke="url(#paint6_linear_224_2182)" stroke-opacity="0.5" stroke-width="0.2"/>
</g>
<g filter="url(#filter4_bd_224_2182)">
<path d="M38.3106 37.6813H19.6795C18.2848 37.6755 17.1572 36.5517 17.1631 35.1725C17.169 33.799 18.2936 32.6869 19.6795 32.6811H38.3223C39.7171 32.6752 40.8564 33.7903 40.8622 35.1696C40.8681 36.5517 39.7405 37.6755 38.3458 37.6813H38.3223H38.3106Z" fill="url(#paint7_linear_224_2182)"/>
<path d="M38.3223 32.7811L38.3227 32.7811C39.6634 32.7755 40.7566 33.8471 40.7622 35.17C40.7679 36.4958 39.686 37.5756 38.3456 37.5813H38.3223H38.3106H19.6797C18.3392 37.5756 17.2575 36.4958 17.2631 35.1729C17.2687 33.8553 18.3478 32.7867 19.6798 32.7811L38.3223 32.7811Z" stroke="url(#paint8_linear_224_2182)" stroke-opacity="0.5" stroke-width="0.2"/>
</g>
<defs>
<filter id="filter0_f_224_2182" x="0.478516" y="7.64197" width="65.2295" height="59.5565" filterUnits="userSpaceOnUse" color-interpolation-filters="sRGB">
<feFlood flood-opacity="0" result="BackgroundImageFix"/>
<feBlend mode="normal" in="SourceGraphic" in2="BackgroundImageFix" result="shape"/>
<feGaussianBlur stdDeviation="10" result="effect1_foregroundBlur_224_2182"/>
</filter>
<filter id="filter1_b_224_2182" x="-21" y="-5.30774" width="116.067" height="110.308" filterUnits="userSpaceOnUse" color-interpolation-filters="sRGB">
<feFlood flood-opacity="0" result="BackgroundImageFix"/>
<feGaussianBlur in="BackgroundImage" stdDeviation="12"/>
<feComposite in2="SourceAlpha" operator="in" result="effect1_backgroundBlur_224_2182"/>
<feBlend mode="normal" in="SourceGraphic" in2="effect1_backgroundBlur_224_2182" result="shape"/>
</filter>
<filter id="filter2_b_224_2182" x="21.0674" y="16.0256" width="79.9326" height="67.2308" filterUnits="userSpaceOnUse" color-interpolation-filters="sRGB">
<feFlood flood-opacity="0" result="BackgroundImageFix"/>
<feGaussianBlur in="BackgroundImage" stdDeviation="12"/>
<feComposite in2="SourceAlpha" operator="in" result="effect1_backgroundBlur_224_2182"/>
<feBlend mode="normal" in="SourceGraphic" in2="effect1_backgroundBlur_224_2182" result="shape"/>
</filter>
<filter id="filter3_bd_224_2182" x="35.9209" y="30.9487" width="37.2812" height="37.3846" filterUnits="userSpaceOnUse" color-interpolation-filters="sRGB">
<feFlood flood-opacity="0" result="BackgroundImageFix"/>
<feGaussianBlur in="BackgroundImage" stdDeviation="7.5"/>
<feComposite in2="SourceAlpha" operator="in" result="effect1_backgroundBlur_224_2182"/>
<feColorMatrix in="SourceAlpha" type="matrix" values="0 0 0 0 0 0 0 0 0 0 0 0 0 0 0 0 0 0 127 0" result="hardAlpha"/>
<feOffset dx="5" dy="5"/>
<feGaussianBlur stdDeviation="5"/>
<feColorMatrix type="matrix" values="0 0 0 0 0.478431 0 0 0 0 0.596078 0 0 0 0 0.00392157 0 0 0 0.5 0"/>
<feBlend mode="normal" in2="effect1_backgroundBlur_224_2182" result="effect2_dropShadow_224_2182"/>
<feBlend mode="normal" in="SourceGraphic" in2="effect2_dropShadow_224_2182" result="shape"/>
</filter>
<filter id="filter4_bd_224_2182" x="2.16309" y="17.681" width="53.6992" height="35.0002" filterUnits="userSpaceOnUse" color-interpolation-filters="sRGB">
<feFlood flood-opacity="0" result="BackgroundImageFix"/>
<feGaussianBlur in="BackgroundImage" stdDeviation="7.5"/>
<feComposite in2="SourceAlpha" operator="in" result="effect1_backgroundBlur_224_2182"/>
<feColorMatrix in="SourceAlpha" type="matrix" values="0 0 0 0 0 0 0 0 0 0 0 0 0 0 0 0 0 0 127 0" result="hardAlpha"/>
<feOffset dx="5" dy="5"/>
<feGaussianBlur stdDeviation="5"/>
<feColorMatrix type="matrix" values="0 0 0 0 0.478431 0 0 0 0 0.596078 0 0 0 0 0.00392157 0 0 0 0.5 0"/>
<feBlend mode="normal" in2="effect1_backgroundBlur_224_2182" result="effect2_dropShadow_224_2182"/>
<feBlend mode="normal" in="SourceGraphic" in2="effect2_dropShadow_224_2182" result="shape"/>
</filter>
<linearGradient id="paint0_linear_224_2182" x1="34.6716" y1="19.5919" x2="34.6716" y2="74.8481" gradientUnits="userSpaceOnUse">
<stop stop-color="#BCD459"/>
<stop offset="1" stop-color="#84A500"/>
</linearGradient>
<linearGradient id="paint1_linear_224_2182" x1="50.3032" y1="0" x2="50.3032" y2="17.9592" gradientUnits="userSpaceOnUse">
<stop stop-color="#BCD459"/>
<stop offset="1" stop-color="#84A500"/>
</linearGradient>
<linearGradient id="paint2_linear_224_2182" x1="33.1235" y1="11.4286" x2="33.1235" y2="29.3878" gradientUnits="userSpaceOnUse">
<stop stop-color="#BCD459"/>
<stop offset="1" stop-color="#84A500"/>
</linearGradient>
<linearGradient id="paint3_linear_224_2182" x1="14.5169" y1="26.7182" x2="63.5304" y2="81.4155" gradientUnits="userSpaceOnUse">
<stop stop-color="white" stop-opacity="0.25"/>
<stop offset="1" stop-color="white" stop-opacity="0"/>
</linearGradient>
<linearGradient id="paint4_linear_224_2182" x1="50.8322" y1="43.033" x2="62.9007" y2="64.3896" gradientUnits="userSpaceOnUse">
<stop stop-color="white" stop-opacity="0.25"/>
<stop offset="1" stop-color="white" stop-opacity="0"/>
</linearGradient>
<linearGradient id="paint5_linear_224_2182" x1="57.6856" y1="47.2822" x2="49.5751" y2="47.543" gradientUnits="userSpaceOnUse">
<stop stop-color="white"/>
<stop offset="1" stop-color="white" stop-opacity="0.2"/>
</linearGradient>
<linearGradient id="paint6_linear_224_2182" x1="51.7052" y1="48.4259" x2="57.8877" y2="48.4596" gradientUnits="userSpaceOnUse">
<stop stop-color="white"/>
<stop offset="1" stop-color="white" stop-opacity="0"/>
</linearGradient>
<linearGradient id="paint7_linear_224_2182" x1="39.182" y1="33.584" x2="13.3717" y2="37.5725" gradientUnits="userSpaceOnUse">
<stop stop-color="white"/>
<stop offset="1" stop-color="white" stop-opacity="0.2"/>
</linearGradient>
<linearGradient id="paint8_linear_224_2182" x1="19.716" y1="34.3584" x2="39.8267" y2="34.8846" gradientUnits="userSpaceOnUse">
<stop stop-color="white"/>
<stop offset="1" stop-color="white" stop-opacity="0"/>
</linearGradient>
</defs>
</svg>
